<svg width="126" height="25" viewBox="0 0 126 25" fill="none" xmlns="http://www.w3.org/2000/svg">
<rect y="7" width="5" height="5" rx="2" fill="#FF9500"/>
<rect y="13" width="5" height="5" rx="2" fill="#FF9500"/>
<path d="M7.18 20V5.6H18.22C18.7267 5.6 19.1867 5.72667 19.6 5.98C20.0267 6.23333 20.3667 6.57333 20.62 7C20.8733 7.41333 21 7.87333 21 8.38V11.2C21 11.3733 20.9867 11.54 20.96 11.7C20.9333 11.86 20.8867 12.0133 20.82 12.16C21.0467 12.4667 21.2267 12.7867 21.36 13.12C21.5067 13.4533 21.58 13.7867 21.58 14.12V17.22C21.58 17.7267 21.4533 18.1933 21.2 18.62C20.9467 19.0333 20.6067 19.3667 20.18 19.62C19.7533 19.8733 19.2867 20 18.78 20H7.18ZM10.06 17.34H18.66C18.7267 17.34 18.7867 17.32 18.84 17.28C18.8933 17.2267 18.92 17.1667 18.92 17.1V14.24C18.92 14.1733 18.8933 14.12 18.84 14.08C18.7867 14.0267 18.7267 14 18.66 14H10.06C9.99333 14 9.93333 14.0267 9.88 14.08C9.84 14.12 9.82 14.1733 9.82 14.24V17.1C9.82 17.1667 9.84 17.2267 9.88 17.28C9.93333 17.32 9.99333 17.34 10.06 17.34ZM10.06 11.34H18.1C18.1667 11.34 18.22 11.32 18.26 11.28C18.3 11.2267 18.32 11.1667 18.32 11.1V8.5C18.32 8.43333 18.3 8.38 18.26 8.34C18.22 8.28667 18.1667 8.26 18.1 8.26H10.06C9.99333 8.26 9.93333 8.28667 9.88 8.34C9.84 8.38 9.82 8.43333 9.82 8.5V11.1C9.82 11.1667 9.84 11.2267 9.88 11.28C9.93333 11.32 9.99333 11.34 10.06 11.34ZM26.5006 20C25.994 20 25.5273 19.8733 25.1006 19.62C24.6873 19.3667 24.354 19.0333 24.1006 18.62C23.8473 18.1933 23.7206 17.7267 23.7206 17.22V5.6H26.3606V17.1C26.3606 17.1667 26.3806 17.2267 26.4206 17.28C26.474 17.32 26.534 17.34 26.6006 17.34H35.2006C35.2673 17.34 35.3273 17.32 35.3806 17.28C35.434 17.2267 35.4606 17.1667 35.4606 17.1V5.6H38.1206V17.22C38.1206 17.7267 37.994 18.1933 37.7406 18.62C37.4873 19.0333 37.1473 19.3667 36.7206 19.62C36.3073 19.8733 35.8473 20 35.3406 20H26.5006ZM43.0431 20C42.5365 20 42.0698 19.8733 41.6431 19.62C41.2298 19.3667 40.8965 19.0333 40.6431 18.62C40.3898 18.1933 40.2631 17.7267 40.2631 17.22V16.12H42.9031V17.1C42.9031 17.1667 42.9231 17.2267 42.9631 17.28C43.0165 17.32 43.0765 17.34 43.1431 17.34H51.7631C51.8298 17.34 51.8831 17.32 51.9231 17.28C51.9765 17.2267 52.0031 17.1667 52.0031 17.1V14.36C52.0031 14.2933 51.9765 14.24 51.9231 14.2C51.8831 14.16 51.8298 14.14 51.7631 14.14H43.0431C42.5365 14.14 42.0698 14.0133 41.6431 13.76C41.2298 13.5067 40.8965 13.1733 40.6431 12.76C40.3898 12.3333 40.2631 11.86 40.2631 11.34V8.38C40.2631 7.87333 40.3898 7.41333 40.6431 7C40.8965 6.57333 41.2298 6.23333 41.6431 5.98C42.0698 5.72667 42.5365 5.6 43.0431 5.6H51.8831C52.3898 5.6 52.8498 5.72667 53.2631 5.98C53.6898 6.23333 54.0298 6.57333 54.2831 7C54.5365 7.41333 54.6631 7.87333 54.6631 8.38V9.48H52.0031V8.5C52.0031 8.43333 51.9765 8.38 51.9231 8.34C51.8831 8.28667 51.8298 8.26 51.7631 8.26H43.1431C43.0765 8.26 43.0165 8.28667 42.9631 8.34C42.9231 8.38 42.9031 8.43333 42.9031 8.5V11.24C42.9031 11.3067 42.9231 11.36 42.9631 11.4C43.0165 11.44 43.0765 11.46 43.1431 11.46H51.8831C52.3898 11.46 52.8498 11.5867 53.2631 11.84C53.6898 12.0933 54.0298 12.4333 54.2831 12.86C54.5365 13.2733 54.6631 13.74 54.6631 14.26V17.22C54.6631 17.7267 54.5365 18.1933 54.2831 18.62C54.0298 19.0333 53.6898 19.3667 53.2631 19.62C52.8498 19.8733 52.3898 20 51.8831 20H43.0431ZM56.5666 20V5.6H59.1866V20H56.5666ZM61.1239 20V5.6H64.0239L72.8639 16.12V5.6H75.5239V20H72.6239L63.7639 9.46V20H61.1239ZM77.8045 20V5.6H91.0645V8.26H80.4645V11.46H88.9845V14.14H80.4645V17.34H91.0645V20H77.8045ZM95.797 20C95.2904 20 94.8237 19.8733 94.397 19.62C93.9837 19.3667 93.6504 19.0333 93.397 18.62C93.1437 18.1933 93.017 17.7267 93.017 17.22V16.12H95.657V17.1C95.657 17.1667 95.677 17.2267 95.717 17.28C95.7704 17.32 95.8304 17.34 95.897 17.34H104.517C104.584 17.34 104.637 17.32 104.677 17.28C104.73 17.2267 104.757 17.1667 104.757 17.1V14.36C104.757 14.2933 104.73 14.24 104.677 14.2C104.637 14.16 104.584 14.14 104.517 14.14H95.797C95.2904 14.14 94.8237 14.0133 94.397 13.76C93.9837 13.5067 93.6504 13.1733 93.397 12.76C93.1437 12.3333 93.017 11.86 93.017 11.34V8.38C93.017 7.87333 93.1437 7.41333 93.397 7C93.6504 6.57333 93.9837 6.23333 94.397 5.98C94.8237 5.72667 95.2904 5.6 95.797 5.6H104.637C105.144 5.6 105.604 5.72667 106.017 5.98C106.444 6.23333 106.784 6.57333 107.037 7C107.29 7.41333 107.417 7.87333 107.417 8.38V9.48H104.757V8.5C104.757 8.43333 104.73 8.38 104.677 8.34C104.637 8.28667 104.584 8.26 104.517 8.26H95.897C95.8304 8.26 95.7704 8.28667 95.717 8.34C95.677 8.38 95.657 8.43333 95.657 8.5V11.24C95.657 11.3067 95.677 11.36 95.717 11.4C95.7704 11.44 95.8304 11.46 95.897 11.46H104.637C105.144 11.46 105.604 11.5867 106.017 11.84C106.444 12.0933 106.784 12.4333 107.037 12.86C107.29 13.2733 107.417 13.74 107.417 14.26V17.22C107.417 17.7267 107.29 18.1933 107.037 18.62C106.784 19.0333 106.444 19.3667 106.017 19.62C105.604 19.8733 105.144 20 104.637 20H95.797ZM112.32 20C111.814 20 111.347 19.8733 110.92 19.62C110.507 19.3667 110.174 19.0333 109.92 18.62C109.667 18.1933 109.54 17.7267 109.54 17.22V16.12H112.18V17.1C112.18 17.1667 112.2 17.2267 112.24 17.28C112.294 17.32 112.354 17.34 112.42 17.34H121.04C121.107 17.34 121.16 17.32 121.2 17.28C121.254 17.2267 121.28 17.1667 121.28 17.1V14.36C121.28 14.2933 121.254 14.24 121.2 14.2C121.16 14.16 121.107 14.14 121.04 14.14H112.32C111.814 14.14 111.347 14.0133 110.92 13.76C110.507 13.5067 110.174 13.1733 109.92 12.76C109.667 12.3333 109.54 11.86 109.54 11.34V8.38C109.54 7.87333 109.667 7.41333 109.92 7C110.174 6.57333 110.507 6.23333 110.92 5.98C111.347 5.72667 111.814 5.6 112.32 5.6H121.16C121.667 5.6 122.127 5.72667 122.54 5.98C122.967 6.23333 123.307 6.57333 123.56 7C123.814 7.41333 123.94 7.87333 123.94 8.38V9.48H121.28V8.5C121.28 8.43333 121.254 8.38 121.2 8.34C121.16 8.28667 121.107 8.26 121.04 8.26H112.42C112.354 8.26 112.294 8.28667 112.24 8.34C112.2 8.38 112.18 8.43333 112.18 8.5V11.24C112.18 11.3067 112.2 11.36 112.24 11.4C112.294 11.44 112.354 11.46 112.42 11.46H121.16C121.667 11.46 122.127 11.5867 122.54 11.84C122.967 12.0933 123.307 12.4333 123.56 12.86C123.814 13.2733 123.94 13.74 123.94 14.26V17.22C123.94 17.7267 123.814 18.1933 123.56 18.62C123.307 19.0333 122.967 19.3667 122.54 19.62C122.127 19.8733 121.667 20 121.16 20H112.32Z" fill="#192F5D"/>
</svg>
