<svg width="24" height="25" viewBox="0 0 24 25" fill="none" xmlns="http://www.w3.org/2000/svg">
<path d="M7.93918 2.9548C7.65797 3.2361 7.5 3.61756 7.5 4.0153C7.5 4.41305 7.65797 4.79451 7.93918 5.0758L15.3642 12.5008L7.93918 19.9258C7.66594 20.2087 7.51475 20.5876 7.51817 20.9809C7.52159 21.3742 7.67934 21.7504 7.95745 22.0285C8.23556 22.3066 8.61178 22.4644 9.00508 22.4678C9.39837 22.4712 9.77728 22.32 10.0602 22.0468L18.5457 13.5613C18.8269 13.28 18.9849 12.8986 18.9849 12.5008C18.9849 12.1031 18.8269 11.7216 18.5457 11.4403L10.0602 2.9548C9.77889 2.6736 9.39743 2.51562 8.99968 2.51562C8.60193 2.51562 8.22047 2.6736 7.93918 2.9548Z" fill="#111111"/>
</svg>
