<svg width="30" height="30" viewBox="0 0 30 30" fill="none" xmlns="http://www.w3.org/2000/svg">
<path d="M30 14.9986C30 6.71435 23.2843 -0.00136948 15 -0.00136948C6.71572 -0.00136948 0 6.71435 0 14.9986C0 22.4856 5.48528 28.6911 12.6562 29.8164V19.3346H8.84766V14.9986H12.6562V11.6939C12.6562 7.93457 14.8956 5.85801 18.322 5.85801C19.9631 5.85801 21.6797 6.15097 21.6797 6.15097V9.84238H19.7882C17.9249 9.84238 17.3438 10.9986 17.3438 12.1849V14.9986H21.5039L20.8389 19.3346H17.3438V29.8164C24.5147 28.6911 30 22.4856 30 14.9986Z" fill="#1877F2"/>
<path d="M20.8389 19.3359L21.5039 15H17.3438V12.1862C17.3438 11 17.9249 9.84375 19.7882 9.84375H21.6797V6.15234C21.6797 6.15234 19.9631 5.85938 18.322 5.85938C14.8956 5.85938 12.6563 7.93594 12.6563 11.6953V15H8.84766V19.3359H12.6563V29.8178C13.4199 29.9376 14.2027 30 15 30C15.7973 30 16.5801 29.9376 17.3438 29.8178V19.3359H20.8389Z" fill="white"/>
</svg>
